<mxfile host="app.diagrams.net" modified="2023-05-29T13:54:41.015Z" agent="Mozilla/5.0 (Windows NT 10.0; Win64; x64) AppleWebKit/537.36 (KHTML, like Gecko) Chrome/113.0.0.0 Safari/537.36" etag="PRjilnQdMYpXS2YCJIXm" version="21.3.5" type="github">
  <diagram name="Page-1" id="4NTaVtp-gPJfkRABY7ir">
    <mxGraphModel dx="874" dy="482" grid="1" gridSize="10" guides="1" tooltips="1" connect="1" arrows="1" fold="1" page="1" pageScale="1" pageWidth="850" pageHeight="1100" math="0" shadow="0">
      <root>
        <mxCell id="0" />
        <mxCell id="1" parent="0" />
        <mxCell id="rA096MkmYegYv4U8YxFh-6" style="edgeStyle=orthogonalEdgeStyle;rounded=0;orthogonalLoop=1;jettySize=auto;html=1;" edge="1" parent="1" source="rA096MkmYegYv4U8YxFh-1" target="rA096MkmYegYv4U8YxFh-5">
          <mxGeometry relative="1" as="geometry" />
        </mxCell>
        <mxCell id="rA096MkmYegYv4U8YxFh-1" value="Start" style="ellipse;whiteSpace=wrap;html=1;" vertex="1" parent="1">
          <mxGeometry x="187.5" y="60" width="90" height="40" as="geometry" />
        </mxCell>
        <mxCell id="rA096MkmYegYv4U8YxFh-3" value="&lt;span id=&quot;docs-internal-guid-b902d7f0-7fff-e588-e7e7-38cdc12ddb4a&quot;&gt;&lt;/span&gt;&lt;span id=&quot;docs-internal-guid-b902d7f0-7fff-e588-e7e7-38cdc12ddb4a&quot;&gt;&lt;/span&gt;" style="text;html=1;align=center;verticalAlign=middle;resizable=0;points=[];autosize=1;strokeColor=none;fillColor=none;" vertex="1" parent="1">
          <mxGeometry x="177.5" y="75" width="20" height="10" as="geometry" />
        </mxCell>
        <mxCell id="rA096MkmYegYv4U8YxFh-10" value="" style="edgeStyle=orthogonalEdgeStyle;rounded=0;orthogonalLoop=1;jettySize=auto;html=1;" edge="1" parent="1" source="rA096MkmYegYv4U8YxFh-5" target="rA096MkmYegYv4U8YxFh-7">
          <mxGeometry relative="1" as="geometry" />
        </mxCell>
        <mxCell id="rA096MkmYegYv4U8YxFh-5" value="input number1, number2, number3" style="shape=parallelogram;perimeter=parallelogramPerimeter;whiteSpace=wrap;html=1;fixedSize=1;" vertex="1" parent="1">
          <mxGeometry x="150" y="135" width="165" height="70" as="geometry" />
        </mxCell>
        <mxCell id="rA096MkmYegYv4U8YxFh-11" value="" style="edgeStyle=orthogonalEdgeStyle;rounded=0;orthogonalLoop=1;jettySize=auto;html=1;" edge="1" parent="1" source="rA096MkmYegYv4U8YxFh-7" target="rA096MkmYegYv4U8YxFh-9">
          <mxGeometry relative="1" as="geometry" />
        </mxCell>
        <mxCell id="rA096MkmYegYv4U8YxFh-17" value="" style="edgeStyle=orthogonalEdgeStyle;rounded=0;orthogonalLoop=1;jettySize=auto;html=1;" edge="1" parent="1" source="rA096MkmYegYv4U8YxFh-7" target="rA096MkmYegYv4U8YxFh-14">
          <mxGeometry relative="1" as="geometry" />
        </mxCell>
        <mxCell id="rA096MkmYegYv4U8YxFh-7" value="is number1 &amp;gt; number2" style="rhombus;whiteSpace=wrap;html=1;" vertex="1" parent="1">
          <mxGeometry x="157.5" y="235" width="150" height="110" as="geometry" />
        </mxCell>
        <mxCell id="rA096MkmYegYv4U8YxFh-19" value="" style="edgeStyle=orthogonalEdgeStyle;rounded=0;orthogonalLoop=1;jettySize=auto;html=1;" edge="1" parent="1" source="rA096MkmYegYv4U8YxFh-8" target="rA096MkmYegYv4U8YxFh-16">
          <mxGeometry relative="1" as="geometry" />
        </mxCell>
        <mxCell id="rA096MkmYegYv4U8YxFh-8" value="is number2 &amp;gt; number3" style="rhombus;whiteSpace=wrap;html=1;" vertex="1" parent="1">
          <mxGeometry x="157.5" y="525" width="150" height="110" as="geometry" />
        </mxCell>
        <mxCell id="rA096MkmYegYv4U8YxFh-12" value="" style="edgeStyle=orthogonalEdgeStyle;rounded=0;orthogonalLoop=1;jettySize=auto;html=1;" edge="1" parent="1" source="rA096MkmYegYv4U8YxFh-9" target="rA096MkmYegYv4U8YxFh-8">
          <mxGeometry relative="1" as="geometry" />
        </mxCell>
        <mxCell id="rA096MkmYegYv4U8YxFh-18" value="" style="edgeStyle=orthogonalEdgeStyle;rounded=0;orthogonalLoop=1;jettySize=auto;html=1;" edge="1" parent="1" source="rA096MkmYegYv4U8YxFh-9" target="rA096MkmYegYv4U8YxFh-15">
          <mxGeometry relative="1" as="geometry" />
        </mxCell>
        <mxCell id="rA096MkmYegYv4U8YxFh-9" value="is number1 &amp;gt; number3" style="rhombus;whiteSpace=wrap;html=1;" vertex="1" parent="1">
          <mxGeometry x="157.5" y="385" width="150" height="110" as="geometry" />
        </mxCell>
        <mxCell id="rA096MkmYegYv4U8YxFh-31" style="edgeStyle=orthogonalEdgeStyle;rounded=0;orthogonalLoop=1;jettySize=auto;html=1;entryX=0.5;entryY=0;entryDx=0;entryDy=0;" edge="1" parent="1" source="rA096MkmYegYv4U8YxFh-14" target="rA096MkmYegYv4U8YxFh-27">
          <mxGeometry relative="1" as="geometry" />
        </mxCell>
        <mxCell id="rA096MkmYegYv4U8YxFh-14" value="number1=number2&lt;br&gt;number2=number3" style="rounded=0;whiteSpace=wrap;html=1;" vertex="1" parent="1">
          <mxGeometry x="350" y="260" width="120" height="60" as="geometry" />
        </mxCell>
        <mxCell id="rA096MkmYegYv4U8YxFh-30" value="" style="edgeStyle=orthogonalEdgeStyle;rounded=0;orthogonalLoop=1;jettySize=auto;html=1;" edge="1" parent="1" source="rA096MkmYegYv4U8YxFh-15" target="rA096MkmYegYv4U8YxFh-27">
          <mxGeometry relative="1" as="geometry" />
        </mxCell>
        <mxCell id="rA096MkmYegYv4U8YxFh-15" value="number1=number2&lt;br&gt;number2=number3" style="rounded=0;whiteSpace=wrap;html=1;" vertex="1" parent="1">
          <mxGeometry x="350" y="410" width="120" height="60" as="geometry" />
        </mxCell>
        <mxCell id="rA096MkmYegYv4U8YxFh-26" style="edgeStyle=orthogonalEdgeStyle;rounded=0;orthogonalLoop=1;jettySize=auto;html=1;" edge="1" parent="1" source="rA096MkmYegYv4U8YxFh-16">
          <mxGeometry relative="1" as="geometry">
            <mxPoint x="540" y="455" as="targetPoint" />
          </mxGeometry>
        </mxCell>
        <mxCell id="rA096MkmYegYv4U8YxFh-16" value="number1=number2&lt;br&gt;number2=number3" style="rounded=0;whiteSpace=wrap;html=1;" vertex="1" parent="1">
          <mxGeometry x="350" y="550" width="120" height="60" as="geometry" />
        </mxCell>
        <mxCell id="rA096MkmYegYv4U8YxFh-20" value="Yes" style="text;html=1;align=center;verticalAlign=middle;resizable=0;points=[];autosize=1;strokeColor=none;fillColor=none;" vertex="1" parent="1">
          <mxGeometry x="300" y="253" width="40" height="30" as="geometry" />
        </mxCell>
        <mxCell id="rA096MkmYegYv4U8YxFh-21" value="No" style="text;html=1;align=center;verticalAlign=middle;resizable=0;points=[];autosize=1;strokeColor=none;fillColor=none;" vertex="1" parent="1">
          <mxGeometry x="230" y="355" width="40" height="30" as="geometry" />
        </mxCell>
        <mxCell id="rA096MkmYegYv4U8YxFh-22" value="Yes" style="text;html=1;align=center;verticalAlign=middle;resizable=0;points=[];autosize=1;strokeColor=none;fillColor=none;" vertex="1" parent="1">
          <mxGeometry x="310" y="413" width="40" height="30" as="geometry" />
        </mxCell>
        <mxCell id="rA096MkmYegYv4U8YxFh-23" value="No" style="text;html=1;align=center;verticalAlign=middle;resizable=0;points=[];autosize=1;strokeColor=none;fillColor=none;" vertex="1" parent="1">
          <mxGeometry x="230" y="495" width="40" height="30" as="geometry" />
        </mxCell>
        <mxCell id="rA096MkmYegYv4U8YxFh-24" value="Yes" style="text;html=1;align=center;verticalAlign=middle;resizable=0;points=[];autosize=1;strokeColor=none;fillColor=none;" vertex="1" parent="1">
          <mxGeometry x="300" y="543" width="40" height="30" as="geometry" />
        </mxCell>
        <mxCell id="rA096MkmYegYv4U8YxFh-34" value="" style="edgeStyle=orthogonalEdgeStyle;rounded=0;orthogonalLoop=1;jettySize=auto;html=1;" edge="1" parent="1" source="rA096MkmYegYv4U8YxFh-25" target="rA096MkmYegYv4U8YxFh-33">
          <mxGeometry relative="1" as="geometry" />
        </mxCell>
        <mxCell id="rA096MkmYegYv4U8YxFh-25" value="Print numbers in sorted order" style="rounded=0;whiteSpace=wrap;html=1;" vertex="1" parent="1">
          <mxGeometry x="570" y="410" width="120" height="60" as="geometry" />
        </mxCell>
        <mxCell id="rA096MkmYegYv4U8YxFh-35" value="" style="edgeStyle=orthogonalEdgeStyle;rounded=0;orthogonalLoop=1;jettySize=auto;html=1;" edge="1" parent="1" source="rA096MkmYegYv4U8YxFh-27" target="rA096MkmYegYv4U8YxFh-25">
          <mxGeometry relative="1" as="geometry" />
        </mxCell>
        <mxCell id="rA096MkmYegYv4U8YxFh-27" value="" style="ellipse;whiteSpace=wrap;html=1;aspect=fixed;" vertex="1" parent="1">
          <mxGeometry x="530" y="430" width="20" height="20" as="geometry" />
        </mxCell>
        <mxCell id="rA096MkmYegYv4U8YxFh-33" value="end" style="ellipse;whiteSpace=wrap;html=1;" vertex="1" parent="1">
          <mxGeometry x="720" y="413" width="80" height="55" as="geometry" />
        </mxCell>
        <mxCell id="rA096MkmYegYv4U8YxFh-36" value="" style="strokeWidth=2;html=1;shape=mxgraph.flowchart.annotation_2;align=left;labelPosition=right;pointerEvents=1;dashed=1;" vertex="1" parent="1">
          <mxGeometry x="100" y="285" width="40" height="290" as="geometry" />
        </mxCell>
        <mxCell id="rA096MkmYegYv4U8YxFh-37" value="If condition" style="text;html=1;align=center;verticalAlign=middle;resizable=0;points=[];autosize=1;strokeColor=none;fillColor=none;" vertex="1" parent="1">
          <mxGeometry x="20" y="415" width="80" height="30" as="geometry" />
        </mxCell>
        <mxCell id="rA096MkmYegYv4U8YxFh-39" value="" style="strokeWidth=2;html=1;shape=mxgraph.flowchart.annotation_2;align=left;labelPosition=right;pointerEvents=1;rotation=-180;dashed=1;" vertex="1" parent="1">
          <mxGeometry x="290" y="60" width="50" height="45" as="geometry" />
        </mxCell>
        <mxCell id="rA096MkmYegYv4U8YxFh-40" value="functuin sortThreeNumbers(number1, number2, number3)" style="text;html=1;align=center;verticalAlign=middle;resizable=0;points=[];autosize=1;strokeColor=none;fillColor=none;" vertex="1" parent="1">
          <mxGeometry x="340" y="67.5" width="330" height="30" as="geometry" />
        </mxCell>
        <mxCell id="rA096MkmYegYv4U8YxFh-41" value="&lt;strong style=&quot;box-sizing: border-box; color: rgb(51, 51, 51); font-family: aktiv-grotesk, sans-serif; font-size: 14px; text-align: start; background-color: rgb(255, 255, 255);&quot;&gt;Flow chart to reads in three numbers and writes them all in sorted order&lt;/strong&gt;" style="text;html=1;align=center;verticalAlign=middle;resizable=0;points=[];autosize=1;strokeColor=none;fillColor=none;" vertex="1" parent="1">
          <mxGeometry x="175" y="20" width="500" height="30" as="geometry" />
        </mxCell>
      </root>
    </mxGraphModel>
  </diagram>
</mxfile>
